<?xml version="1.0" encoding="UTF-8"?>
<svg xmlns="http://www.w3.org/2000/svg" xmlns:xlink="http://www.w3.org/1999/xlink" version="1.1" viewBox="0 0 283.46 141.73">
  <defs>
    <style>
      .st0 {
        fill: none;
      }
      .st1 {
        fill: #fff;
      }
    </style>
  </defs>
  <g>
    <g id="Raggruppa_8">
      <g id="Raggruppa_6">
        <path id="Tracciato_6" class="st1" d="M155.09,67.24c-.29-.14-.62-.21-.94-.2-.69-.02-1.35.29-1.78.83-.04.05-.07.06-.1.04-.03-.03-.05-.08-.05-.13v-.26c.02-.17-.09-.33-.26-.35-.03,0-.06,0-.09,0h-2.78c-.17-.02-.33.09-.35.26,0,.03,0,.06,0,.09v8.93c-.02.17.09.33.26.35.03,0,.06,0,.09,0h2.78c.17.02.33-.09.35-.26,0-.03,0-.06,0-.09v-4.58c-.01-.31.11-.61.34-.83.23-.21.52-.35.82-.4.18-.04.36-.06.54-.06.17,0,.34.02.5.06.23.05.37-.03.41-.24l.44-2.72c.05-.17-.02-.36-.18-.45M147.57,73.34c.1-.46.15-.93.15-1.41,0-.56-.07-1.11-.22-1.65-.26-.95-.83-1.79-1.62-2.38-.84-.61-1.86-.91-2.9-.88-1.04-.03-2.07.28-2.92.88-.8.6-1.38,1.45-1.64,2.42-.15.54-.23,1.09-.22,1.65,0,.5.06,1,.18,1.48.22,1.01.79,1.92,1.6,2.56.85.65,1.9.98,2.97.95,1.09.04,2.15-.31,3.01-.97.82-.67,1.39-1.6,1.6-2.64M144.22,71.95c0,.28-.02.56-.07.83-.06.32-.2.62-.41.86-.2.22-.48.34-.78.32-.61,0-1-.4-1.19-1.19-.05-.27-.08-.55-.07-.83,0-.29.02-.57.09-.85.16-.73.55-1.09,1.17-1.09s.98.36,1.17,1.09c.06.28.09.57.09.85M138.23,67.59c.05-.06.07-.13.07-.2,0-.06-.03-.12-.08-.16-.06-.05-.14-.07-.21-.07h-3.19c-.18-.01-.34.08-.43.24l-1.07,1.76s-.06.07-.11.07c-.05,0-.09-.03-.11-.07l-1.07-1.76c-.08-.16-.25-.25-.43-.24h-2.96c-.08,0-.15.02-.21.07-.05.04-.08.09-.08.16,0,.07.03.14.07.2l2.8,4.28c.04.07.04.15,0,.22l-2.8,4.28c-.05.06-.07.13-.07.2,0,.06.03.12.08.16.06.05.14.07.21.07h3.19c.18.01.34-.08.43-.24l.37-.61.04-.02,4.68-6.97.9-1.37ZM127.36,76.45v-8.93c.02-.17-.09-.33-.26-.35-.03,0-.06,0-.09,0h-2.78c-.17-.02-.33.09-.35.26,0,.03,0,.06,0,.09v5.37c0,.06,0,.12-.02.18-.05.25-.18.48-.36.65-.18.16-.42.25-.66.24-.29,0-.57-.12-.75-.34-.2-.26-.3-.58-.29-.9v-5.2c.02-.17-.09-.33-.26-.35-.03,0-.06,0-.09,0h-2.78c-.17-.02-.33.09-.35.26,0,.03,0,.06,0,.09v5.97c-.06.92.24,1.83.83,2.55.58.62,1.4.96,2.24.92.89.07,1.76-.3,2.32-1,.04-.05.07-.07.11-.06s.06.05.06.11v.44c-.02.17.09.33.26.35.03,0,.06,0,.09,0h2.78c.17.02.33-.09.35-.26,0-.03,0-.06,0-.09M117.07,76.45v-12.26c.02-.17-.09-.33-.26-.35-.03,0-.06,0-.09,0h-2.78c-.17-.02-.33.09-.35.26,0,.03,0,.06,0,.09v12.26c-.02.17.09.33.26.35.03,0,.06,0,.09,0h2.78c.17.02.33-.09.35-.26,0-.03,0-.06,0-.09M134.03,75.59l.59.97c.08.16.25.25.43.24h2.96c.08,0,.15-.02.21-.07.05-.04.08-.09.08-.16,0-.07-.03-.14-.07-.2l-2.68-4.1-1.53,3.31Z"/>
      </g>
      <g id="Raggruppa_7">
        <path id="Tracciato_7" class="st1" d="M169.74,75.35v-6.65c0-.82-.66-1.48-1.48-1.48h-9.86c-.82,0-1.48.66-1.48,1.48h0v6.65c0,.82.66,1.48,1.48,1.48h9.86c.82,0,1.48-.66,1.48-1.48h0M164.18,74.64c0,.06-.04.09-.11.09h-1.34c-.06,0-.12-.04-.13-.1l-.17-.61s-.02-.03-.04-.03h-1.66s-.03.01-.04.03l-.17.61c-.01.06-.07.11-.13.1h-1.34c-.09,0-.13-.04-.1-.13l1.65-5.25c.02-.06.07-.1.13-.09h1.66c.06,0,.12.03.13.09l1.65,5.25s0,.03,0,.05M166.91,74.61s0,.06-.03.09c-.02.02-.05.03-.09.03h-1.24s-.06,0-.09-.03c-.02-.02-.03-.05-.03-.09v-5.25s0-.06.03-.09c.02-.02.05-.03.09-.03h1.24s.06,0,.09.03c.02.02.03.05.03.09v5.25ZM162.04,72.86s.04-.02.03-.05l-.5-1.75s-.01-.02-.02-.02-.02,0-.02.02l-.49,1.75s0,.05.03.05h.98Z"/>
      </g>
    </g>
  </g>
</svg>